<svg width="152" height="33" viewBox="0 0 152 33" fill="none" xmlns="http://www.w3.org/2000/svg">
<g clip-path="url(#clip0_305_26)">
<path d="M0 9.64901C0 6.63576 1.2324 4.27152 3.70385 2.56291C6.16864 0.854305 9.32624 0 13.17 0C17.7398 0 21.89 1.10596 25.6072 3.31788V10.0132C20.9108 7.31788 16.7672 5.97351 13.17 5.97351C11.3913 5.97351 9.94577 6.30464 8.83328 6.96689C7.72079 7.62914 7.16122 8.50331 7.16122 9.5894C7.16122 9.95364 7.2345 10.2848 7.37439 10.5828C7.51428 10.8808 7.76076 11.1589 8.1005 11.3974C8.44691 11.6358 8.78665 11.8411 9.13305 12C9.47946 12.1589 9.97241 12.3311 10.6186 12.5099C11.2648 12.6887 11.811 12.8344 12.2573 12.9338C12.7037 13.0331 13.3565 13.1854 14.2292 13.3841C15.1018 13.5828 15.7947 13.7483 16.3209 13.8675C20.0448 14.755 22.7427 16 24.4214 17.6093C26.1001 19.2185 26.9595 21.1921 26.9995 23.5232C26.9995 25.6954 26.32 27.5232 24.9677 29.0132C23.6087 30.5033 22.0033 31.5364 20.1447 32.1192C18.2861 32.702 16.241 32.9934 14.016 32.9934C9.44615 32.9934 4.9962 31.6026 0.66616 28.8344V21.7748C2.12505 23.0199 4.12353 24.1854 6.67492 25.2715C9.22632 26.3576 11.6711 26.9007 14.016 26.9007C15.5948 26.9007 16.9604 26.5894 18.1129 25.9669C19.2653 25.3444 19.8449 24.5099 19.8449 23.4636C19.8449 22.4172 19.1787 21.4834 17.8398 20.7815C16.5074 20.0795 14.4224 19.4437 11.5912 18.8808C7.62753 18.0795 4.70309 16.9603 2.82452 15.5298C0.939285 14.106 0 12.1457 0 9.64901Z" fill="#0075D9"/>
<path d="M33.6078 4.82781C36.8453 1.60927 40.749 0 45.3189 0C49.8887 0 53.7858 1.62252 57.0033 4.8543C60.2209 8.09272 61.8263 11.9669 61.8263 16.4702C61.8263 20.9735 60.2075 24.9073 56.97 28.1457C53.7325 31.3841 49.8488 33 45.3189 33C40.789 33 36.8453 31.3841 33.6078 28.1457C30.3702 24.9073 28.7515 21.0199 28.7515 16.4702C28.7515 11.9205 30.3702 8.04636 33.6078 4.82781ZM35.3065 16.4702C35.3065 19.245 36.2791 21.6358 38.2176 23.649C40.1561 25.6623 42.5277 26.6623 45.3189 26.6623C48.1101 26.6623 50.415 25.6556 52.3602 23.649C54.2987 21.6358 55.2713 19.245 55.2713 16.4702C55.2713 13.6954 54.312 11.3113 52.3868 9.3245C50.4616 7.33113 48.1101 6.33775 45.3189 6.33775C42.5277 6.33775 40.1628 7.33113 38.2176 9.3245C36.2791 11.3113 35.3065 13.6954 35.3065 16.4702Z" fill="#0075D9"/>
<path d="M64.6375 0.543046H71.6189V4.76821C74.0837 1.5894 77.4211 0 81.6313 0C85.3151 0 88.4794 1.17881 91.1307 3.5298C93.782 5.88079 95.1077 9.00662 95.1077 12.9073V32.5166H88.1263V14.7815C88.1263 12.245 87.3669 10.2252 85.8481 8.71523C84.3292 7.2053 82.4573 6.45033 80.2323 6.45033C77.6809 6.45033 75.6092 7.36424 74.0104 9.19868C72.4116 11.0265 71.6122 13.3113 71.6122 16.0464V32.5166H64.6309V0.543046H64.6375Z" fill="#0075D9"/>
<path d="M105.347 0.542969V32.5165H98.3652V0.542969H105.347Z" fill="#0075D9"/>
<path d="M113.087 4.82781C116.325 1.60927 120.228 0 124.798 0C129.368 0 133.265 1.62252 136.483 4.8543C139.7 8.09272 141.306 11.9669 141.306 16.4702C141.306 20.9735 139.687 24.9073 136.449 28.1457C133.212 31.3841 129.328 33 124.798 33C120.268 33 116.325 31.3841 113.087 28.1457C109.85 24.9073 108.231 21.0199 108.231 16.4702C108.231 11.9205 109.85 8.04636 113.087 4.82781ZM114.786 16.4702C114.786 19.245 115.759 21.6358 117.697 23.649C119.636 25.6623 122.007 26.6623 124.798 26.6623C127.59 26.6623 129.894 25.6556 131.84 23.649C133.778 21.6358 134.751 19.245 134.751 16.4702C134.751 13.6954 133.792 11.3113 131.866 9.3245C129.941 7.33113 127.59 6.33775 124.798 6.33775C122.007 6.33775 119.642 7.33113 117.697 9.3245C115.759 11.3113 114.786 13.6954 114.786 16.4702Z" fill="#0075D9"/>
<path d="M141.779 28.4173C141.779 27.1325 142.232 26.0332 143.144 25.1259C144.057 24.2186 145.156 23.7683 146.449 23.7683C147.741 23.7683 148.833 24.2186 149.726 25.1259C150.619 26.0332 151.058 27.1259 151.058 28.4173C151.058 29.7087 150.612 30.7882 149.726 31.6756C148.833 32.5564 147.741 33.0001 146.449 33.0001C145.156 33.0001 144.05 32.5564 143.144 31.6756C142.232 30.7882 141.779 29.7021 141.779 28.4173Z" fill="#0075D9"/>
</g>
<defs>
<clipPath id="clip0_305_26">
<rect width="151.065" height="33" fill="white"/>
</clipPath>
</defs>
</svg>
